<svg xmlns:xlink="http://www.w3.org/1999/xlink" xmlns="http://www.w3.org/2000/svg" viewBox="0 0 333.5 443.9" preserveAspectRatio="xMidYMid meet" class="css-grg60t" id="chgdehbe" width="333.5"  height="443.9" ><defs id="SvgjsDefs1147"><linearGradient id="SvgjsLinearGradient1154"><stop id="SvgjsStop1155" stop-color="#2d388a" offset="0"></stop><stop id="SvgjsStop1156" stop-color="#00aeef" offset="1"></stop></linearGradient><linearGradient id="SvgjsLinearGradient1154"><stop id="SvgjsStop1155" stop-color="#2d388a" offset="0"></stop><stop id="SvgjsStop1156" stop-color="#00aeef" offset="1"></stop></linearGradient><linearGradient id="SvgjsLinearGradient1154"><stop id="SvgjsStop1155" stop-color="#2d388a" offset="0"></stop><stop id="SvgjsStop1156" stop-color="#00aeef" offset="1"></stop></linearGradient></defs><g id="SvgjsG1148" featurekey="rootContainer" transform="matrix(1.15,0,0,1.15,-5.75,0)" fill="#FB9C2A"><path xmlns="http://www.w3.org/2000/svg" fill-rule="evenodd" d="M5,65 L150,0 L295, 65 L150, 10 z M5,306 L150,386 L295,301 L150, 376 z" fill="#FB9C2A"></path></g><g id="SvgjsG1149" featurekey="symbolFeature-0" transform="matrix(1.666495905818841,0,0,1.666495905818841,83.66905731853623,67.521340355754)" fill="url(&quot;#SvgjsLinearGradient1154&quot;)"><title xmlns="http://www.w3.org/2000/svg">Datascience</title><path xmlns="http://www.w3.org/2000/svg" d="M86,50.94V41.5a2.2,2.2,0,0,0,0-.36c0-3.25-5.67-5-11-5-5.11,0-10.51,1.61-11,4.6a1.06,1.06,0,0,0-.08.4v6c-4.78.2-9.5,1.79-9.92,4.58a1.06,1.06,0,0,0-.08.4V71.86c0,3.25,5.67,5,11,5s11-1.75,11-5v-6c5-.2,10-1.93,10-5V51.5a2.2,2.2,0,0,0,0-.36A1.42,1.42,0,0,0,86,50.94ZM56,55.07c2.12,1.36,5.64,2.07,9,2.07s6.83-.69,9-2v7.25c-.4,1.2-3.8,2.77-9,2.77-5.49,0-9-1.78-9-3a1.42,1.42,0,0,0,0-.2ZM76,52.5a2.2,2.2,0,0,0,0-.36c0-3-5-4.79-10-5V44.07c2.12,1.36,5.64,2.07,9,2.07s6.83-.69,9-2v7.25c-.37,1.13-3.38,2.57-8,2.75ZM75,38.14c5.34,0,8.79,1.67,9,2.89,0,0,0,.07,0,.11v.23c-.4,1.2-3.8,2.77-9,2.77-5.49,0-9-1.78-9-3S69.51,38.14,75,38.14Zm-10,11c5.34,0,8.79,1.67,9,2.89,0,0,0,.07,0,.11v.23c-.4,1.2-3.8,2.77-9,2.77-5.49,0-9-1.78-9-3S59.51,49.14,65,49.14Zm0,25.72c-5.49,0-9-1.78-9-3V65.07c2.12,1.36,5.64,2.07,9,2.07s6.83-.69,9-2v6.74C74,73.08,70.45,74.86,65,74.86Zm11-11V62.5a2.2,2.2,0,0,0,0-.36,1.42,1.42,0,0,0,0-.2V56.12a17.33,17.33,0,0,0,8-2v6.74C84,62,80.88,63.64,76,63.84ZM46.65,58.17l16.42-32,3.61,6a1,1,0,1,0,1.71-1l-4.53-7.59a1,1,0,0,0-.89-.49,1,1,0,0,0-.86.54L44.88,57.24a4.32,4.32,0,0,0-.88-.1,3.86,3.86,0,0,0-.84.09l-7.9-15.8a4,4,0,1,0-4.82-.25l-8,12H15a1,1,0,0,0,0,2h8a1,1,0,0,0,.83-.45l8.42-12.63a3.74,3.74,0,0,0,.75.08c.12,0,.24,0,.36,0l8,16a4,4,0,1,0,5.27,0ZM33,36.14a2,2,0,1,1-2,2A2,2,0,0,1,33,36.14Zm11,27a2,2,0,1,1,2-2A2,2,0,0,1,44,63.14Z" fill="url(&quot;#SvgjsLinearGradient1154&quot;)"></path></g><g id="SvgjsG1150" featurekey="nameFeature-0" transform="matrix(3.3311126819076096,0,0,3.3311126819076096,17,191.42505936797505)" fill="#137DC5"><path d="M5 40.04 l-5 0 l0 -28.52 l5 0 c3.4 0 6.12 2.76 6.12 6.16 l0 16.2 c0 1.64 -0.64 3.2 -1.8 4.36 s-2.68 1.8 -4.32 1.8 z M3.8 15.36 l0 20.84 l1.2 0 c0.6 0 1.2 -0.24 1.64 -0.68 s0.68 -1 0.68 -1.64 l0 -16.2 c0 -1.28 -1.04 -2.32 -2.32 -2.32 l-1.2 0 z M24.468000000000004 23.04 c0.88 0.88 1.44 2.08 1.44 3.4 l0 8.76 c0 2.64 -2.16 4.8 -4.8 4.8 l-5.92 0 l-0.04 -28.48 l5.28 0 c2.92 0.12 4.64 2.92 4.6 5.56 l-0.04 3.96 c0 0.72 -0.2 1.4 -0.52 2 z M21.108 36.16 c0.56 0 1 -0.44 1 -0.96 l-0.04 -8.76 c0 -0.56 -0.44 -0.96 -0.96 -0.96 l-2.12 0 l0 10.68 l2.12 0 z M18.948 15.32 l0 6.32 l1.6 0 c0.32 0 0.64 -0.28 0.64 -0.64 l0.04 -3.96 c0 -0.8 -0.4 -1.68 -0.96 -1.72 l-1.32 0 z M35.296 39.92 c-2.96 0 -5.36 -2.4 -5.36 -5.36 l0 -17.76 c0 -2.96 2.4 -5.36 5.36 -5.36 s5.36 2.4 5.36 5.36 l0 1.6 l-3.8 0 l0 -1.6 c0 -0.84 -0.72 -1.56 -1.56 -1.56 s-1.56 0.72 -1.56 1.56 l0 17.76 c0 0.84 0.72 1.56 1.56 1.56 s1.56 -0.72 1.56 -1.56 l0 -2.56 l3.8 0 l0 2.56 c0 2.96 -2.4 5.36 -5.36 5.36 z M50.083999999999996 40.04 c-3 0 -5.4 -2.44 -5.4 -5.4 l0 -17.96 c0 -2.96 2.4 -5.36 5.4 -5.36 c2.96 0 5.36 2.4 5.36 5.36 l0 17.96 c0 2.96 -2.4 5.4 -5.36 5.4 z M50.083999999999996 15.120000000000001 c-0.88 0 -1.56 0.72 -1.56 1.56 l0 17.96 c0 0.88 0.68 1.56 1.56 1.56 c0.84 0 1.56 -0.68 1.56 -1.56 l0 -17.96 c0 -0.84 -0.72 -1.56 -1.56 -1.56 z M68.752 33.44 l0.16 -22.16 l3.84 0 l-0.24 28.88 l-5.96 0 l-3.24 -22.36 l0 22.36 l-3.84 0 l0 -28.88 l6.2 0 z M86.06 33.44 l0.16 -22.16 l3.84 0 l-0.24 28.88 l-5.96 0 l-3.24 -22.36 l0 22.36 l-3.84 0 l0 -28.88 l6.2 0 z" fill="#137DC5"></path></g></svg>