<svg xmlns:xlink="http://www.w3.org/1999/xlink" xmlns="http://www.w3.org/2000/svg" class="css-ze2te4 css-qd6ojx" viewBox="0 0 120.00000000000001 89.6082166941385" width="256"  height="256" ><defs><linearGradient id="SvgjsLinearGradient1154"><stop id="SvgjsStop1155" stop-color="#2d388a" offset="0"></stop><stop id="SvgjsStop1156" stop-color="#00aeef" offset="1"></stop></linearGradient><linearGradient id="SvgjsLinearGradient1154"><stop id="SvgjsStop1155" stop-color="#2d388a" offset="0"></stop><stop id="SvgjsStop1156" stop-color="#00aeef" offset="1"></stop></linearGradient><linearGradient id="SvgjsLinearGradient1154"><stop id="SvgjsStop1155" stop-color="#2d388a" offset="0"></stop><stop id="SvgjsStop1156" stop-color="#00aeef" offset="1"></stop></linearGradient><linearGradient id="SvgjsLinearGradient1154"><stop id="SvgjsStop1155" stop-color="#2d388a" offset="0"></stop><stop id="SvgjsStop1156" stop-color="#00aeef" offset="1"></stop></linearGradient></defs><g transform="translate(-23.330942681463775, -38.478659644246) scale(1.666495905818841)" class="css-1ha7vy5" fill="url(&quot;#SvgjsLinearGradient1154&quot;)"><title xmlns="http://www.w3.org/2000/svg">Datascience</title><path xmlns="http://www.w3.org/2000/svg" d="M86,50.94V41.5a2.2,2.2,0,0,0,0-.36c0-3.25-5.67-5-11-5-5.11,0-10.51,1.61-11,4.6a1.06,1.06,0,0,0-.08.4v6c-4.78.2-9.5,1.79-9.92,4.58a1.06,1.06,0,0,0-.08.4V71.86c0,3.25,5.67,5,11,5s11-1.75,11-5v-6c5-.2,10-1.93,10-5V51.5a2.2,2.2,0,0,0,0-.36A1.42,1.42,0,0,0,86,50.94ZM56,55.07c2.12,1.36,5.64,2.07,9,2.07s6.83-.69,9-2v7.25c-.4,1.2-3.8,2.77-9,2.77-5.49,0-9-1.78-9-3a1.42,1.42,0,0,0,0-.2ZM76,52.5a2.2,2.2,0,0,0,0-.36c0-3-5-4.79-10-5V44.07c2.12,1.36,5.64,2.07,9,2.07s6.83-.69,9-2v7.25c-.37,1.13-3.38,2.57-8,2.75ZM75,38.14c5.34,0,8.79,1.67,9,2.89,0,0,0,.07,0,.11v.23c-.4,1.2-3.8,2.77-9,2.77-5.49,0-9-1.78-9-3S69.51,38.14,75,38.14Zm-10,11c5.34,0,8.79,1.67,9,2.89,0,0,0,.07,0,.11v.23c-.4,1.2-3.8,2.77-9,2.77-5.49,0-9-1.78-9-3S59.51,49.14,65,49.14Zm0,25.72c-5.49,0-9-1.78-9-3V65.07c2.12,1.36,5.64,2.07,9,2.07s6.83-.69,9-2v6.74C74,73.08,70.45,74.86,65,74.86Zm11-11V62.5a2.2,2.2,0,0,0,0-.36,1.42,1.42,0,0,0,0-.2V56.12a17.33,17.33,0,0,0,8-2v6.74C84,62,80.88,63.64,76,63.84ZM46.65,58.17l16.42-32,3.61,6a1,1,0,1,0,1.71-1l-4.53-7.59a1,1,0,0,0-.89-.49,1,1,0,0,0-.86.54L44.88,57.24a4.32,4.32,0,0,0-.88-.1,3.86,3.86,0,0,0-.84.09l-7.9-15.8a4,4,0,1,0-4.82-.25l-8,12H15a1,1,0,0,0,0,2h8a1,1,0,0,0,.83-.45l8.42-12.63a3.74,3.74,0,0,0,.75.08c.12,0,.24,0,.36,0l8,16a4,4,0,1,0,5.27,0ZM33,36.14a2,2,0,1,1-2,2A2,2,0,0,1,33,36.14Zm11,27a2,2,0,1,1,2-2A2,2,0,0,1,44,63.14Z" fill="url(&quot;#SvgjsLinearGradient1154&quot;)"></path></g></svg>